<svg>
  

  
  <defs>
    <marker orient="auto" refY="3.5" refX="9" markerHeight="7" markerWidth="10" id="arrowhead">
      <polygon fill="#4285f4" points="0 0, 10 3.5, 0 7"></polygon>
    </marker>
  </defs>

  
  <g transform="translate(680,520) scale(2.5)" id="Cloud-NAT">
    <rect stroke-width="1" stroke="#4285f4" fill="#e8f0fe" rx="2" height="12" width="20" y="6" x="2"></rect>
    <path fill="#4285f4" d="M15.3,11.17c0,.27,0,.54,0,.83s0,.56,0,.83h4.5V11.17Z"></path>
    <path fill="#4285f4" d="M9.86,5.89H7V7.56h3.93A10,10,0,0,0,9.86,5.89Z"></path>
    <path fill="#4285f4" d="M11,16.44H7.6v1.67H9.89A10.7,10.7,0,0,0,11,16.44Z"></path>
    <path fill="#4285f4" d="M12,12a7.45,7.45,0,0,0,0-.83H4.5v1.66H12A7.45,7.45,0,0,0,12,12Z"></path>
    <polygon fill="#4285f4" points="18.67 14.5 18.67 9.5 22 12 18.67 14.5"></polygon>
  </g>

  
  <text text-anchor="middle" font-weight="500" font-size="11" font-family="Roboto" fill="#212121" y="585" x="695">Cloud NAT</text>

  
  
  <path marker-end="url(#arrowhead)" stroke-dasharray="5,3" stroke-width="2.5" stroke="#4285f4" fill="none" d="M 520 480 Q 600 480 670 535"></path>
  
  <path marker-end="url(#arrowhead)" stroke-dasharray="5,3" stroke-width="2.5" stroke="#4285f4" fill="none" d="M 740 535 Q 800 480 870 320"></path>
  
  <path marker-end="url(#arrowhead)" stroke-dasharray="5,3" stroke-width="2" stroke="#34a853" fill="none" d="M 870 320 Q 800 480 740 535"></path>
  <path marker-end="url(#arrowhead)" stroke-dasharray="5,3" stroke-width="2" stroke="#34a853" fill="none" d="M 740 535 Q 670 535 620 490"></path>
</svg>
